<svg viewBox="0 0 100 100" fill="none" xmlns="http://www.w3.org/2000/svg">
  <rect width="100" height="100" rx="22" fill="#ffffff" />
  <circle cx="25" cy="29" r="14" fill="#111827" />
  <circle cx="75" cy="29" r="14" fill="#111827" />
  <path d="M50 16C72 16 86 31 86 53C86 75 70 89 50 89C30 89 14 75 14 53C14 31 28 16 50 16Z" fill="#ffffff" stroke="#111827" stroke-width="3" />
  <ellipse cx="35" cy="47" rx="10" ry="13" transform="rotate(-18 35 47)" fill="#111827" />
  <ellipse cx="65" cy="47" rx="10" ry="13" transform="rotate(18 65 47)" fill="#111827" />
  <circle cx="36" cy="46" r="4.6" fill="#ffffff" />
  <circle cx="64" cy="46" r="4.6" fill="#ffffff" />
  <circle cx="37" cy="47" r="1.9" fill="#111827" />
  <circle cx="63" cy="47" r="1.9" fill="#111827" />
  <path d="M46 57h8l-4 5z" fill="#111827" />
  <ellipse cx="27" cy="79" rx="9" ry="7" fill="#111827" />
  <ellipse cx="73" cy="79" rx="9" ry="7" fill="#111827" />
  <rect x="31" y="64" width="38" height="21" rx="4" fill="#0f172a" />
  <path d="M44 70l-4 5 4 5M56 70l4 5-4 5M52 68l-4 14" stroke="#A3E635" stroke-width="2.1" stroke-linecap="round" stroke-linejoin="round" />
</svg>
